# xmcd CD database file
#
# Track frame offsets:
#	150
#	22222
#	41345
#	58511
#	109451
#	125469
#	144841
#	166384
#	192544
#	212582
#	251587
#
# Disc length: 3740 seconds
#
# Revision: 3
# Processed by: cddbd v1.5.2PL0 Copyright (c) Steve Scherf et al.
# Submitted via: CDex 1.51
#
DISCID=9f0e9a0b
DTITLE=HOBO BLUES BAND - Idegen Tollak
DYEAR=2004
DGENRE=Blues Rock
TTITLE0=Indulnod Kell
TTITLE1=Star Star
TTITLE2=Apró Képek Balladája
TTITLE3=Vándor Az Úton
TTITLE4=Miss Maggie M'Gill
TTITLE5=Nekem Is Fáj
TTITLE6=Leples Bitang
TTITLE7=Nagyon Fáj
TTITLE8=Adj Menedéket
TTITLE9=Halál Apa Blues
TTITLE10=Kávéház Varsóban
EXTD=YEAR: 2004
EXTT0=
EXTT1=
EXTT2=
EXTT3=
EXTT4=
EXTT5=
EXTT6=
EXTT7=
EXTT8=
EXTT9=
EXTT10=
PLAYORDER=
